<?xml version="1.0" standalone="no"?>
<!DOCTYPE svg PUBLIC "-//W3C//DTD SVG 20010904//EN"
 "http://www.w3.org/TR/2001/REC-SVG-20010904/DTD/svg10.dtd">
<svg version="1.0" xmlns="http://www.w3.org/2000/svg"
 width="1920.000000pt" height="1080.000000pt" viewBox="0 0 1920.000000 1080.000000"
 preserveAspectRatio="xMidYMid meet">

<g transform="translate(0.000000,1080.000000) scale(0.100000,-0.100000)"
fill="#000000" stroke="none">
<path d="M9545 7480 c-113 -17 -163 -30 -230 -55 -38 -14 -83 -30 -100 -34
-16 -5 -131 -45 -255 -91 -124 -45 -268 -98 -320 -117 -136 -49 -223 -94 -322
-168 -128 -95 -246 -241 -269 -332 -6 -23 -16 -41 -21 -40 -11 2 -39 -41 -117
-180 -25 -45 -95 -166 -154 -268 -115 -195 -175 -326 -182 -395 -2 -22 -8 -55
-14 -73 -14 -47 -24 -187 -13 -187 5 0 17 10 26 23 9 13 7 3 -6 -25 -20 -44
-21 -53 -10 -120 6 -40 14 -87 16 -105 2 -18 11 -70 20 -115 9 -46 23 -123 31
-173 37 -218 67 -382 76 -425 24 -112 79 -241 156 -363 33 -54 182 -201 303
-299 52 -43 121 -101 153 -130 40 -35 61 -48 66 -40 5 8 12 4 22 -14 8 -15 46
-54 84 -86 39 -33 92 -78 118 -101 128 -112 294 -193 472 -233 37 -9 455 -18
455 -10 0 3 -8 21 -17 41 l-17 35 -162 0 c-89 0 -186 5 -216 11 -80 17 -187
50 -240 76 -26 13 -50 23 -52 23 -18 0 -204 147 -402 318 -86 73 -114 89 -94
52 6 -11 8 -20 6 -20 -3 0 -15 18 -26 40 -12 23 -50 63 -92 97 -40 32 -122
106 -181 166 -98 97 -115 119 -167 220 -70 136 -91 221 -165 657 -20 118 -44
253 -52 300 -9 47 -18 132 -20 190 l-4 105 -20 -25 c-17 -21 -16 -17 4 25 13
28 27 68 31 90 20 115 62 213 189 434 72 124 134 241 139 259 5 18 15 35 23
38 12 5 118 180 137 227 17 40 131 177 191 227 101 86 184 133 322 184 72 26
140 54 152 62 12 8 30 14 40 14 10 0 92 27 183 61 91 33 208 76 260 95 52 19
104 39 115 44 23 10 183 29 270 31 76 3 199 -23 323 -65 54 -19 189 -66 302
-105 297 -102 456 -160 445 -161 -5 0 23 -18 63 -40 41 -22 93 -53 115 -69 67
-46 165 -150 220 -233 41 -63 56 -78 77 -79 l25 0 -23 -9 c-25 -10 -25 -9 18
-75 11 -16 23 -37 27 -45 3 -8 17 -32 30 -53 25 -41 40 -66 93 -162 18 -33 39
-67 46 -76 8 -8 14 -20 14 -25 0 -6 14 -32 32 -60 56 -89 143 -268 157 -324 8
-30 16 -59 19 -65 7 -11 8 -19 10 -93 2 -44 6 -54 25 -62 17 -7 18 -9 5 -9
-14 -1 -18 -11 -20 -43 -3 -78 -7 -112 -17 -158 -17 -76 -14 -93 20 -113 46
-26 44 -28 66 123 21 141 12 303 -23 428 -12 42 -19 52 -37 53 -17 1 -18 2 -4
6 26 7 22 23 -34 133 -45 87 -55 100 -78 101 -17 1 -20 3 -8 6 22 6 21 11 -5
53 -11 19 -35 60 -51 90 -17 30 -45 77 -64 105 -18 27 -33 54 -33 58 0 5 -10
23 -22 40 -13 18 -23 34 -23 37 0 15 -77 140 -86 140 -6 0 -8 4 -5 8 3 5 -10
32 -29 61 -19 29 -35 55 -35 58 0 22 -187 223 -207 223 -6 0 -16 6 -20 13 -11
18 -86 68 -148 99 -103 52 -678 257 -935 332 -124 37 -254 50 -345 36z m-1177
-3675 c-3 -3 -9 2 -12 12 -6 14 -5 15 5 6 7 -7 10 -15 7 -18z"/>
<path d="M9512 7339 c-78 -10 -71 -8 -438 -140 -166 -60 -304 -109 -308 -109
-3 0 -25 -8 -49 -18 -23 -10 -64 -26 -92 -36 -79 -27 -192 -96 -250 -153 -30
-29 -57 -53 -62 -53 -23 0 -120 -143 -233 -342 -8 -15 -46 -80 -84 -145 -38
-65 -119 -217 -179 -338 -82 -166 -112 -237 -122 -291 -16 -82 -18 -226 -4
-293 5 -25 11 -64 14 -86 3 -22 10 -63 15 -90 6 -28 13 -66 16 -85 2 -19 11
-69 20 -110 8 -41 17 -88 19 -105 8 -78 49 -289 71 -363 48 -171 119 -287 255
-416 78 -74 120 -105 107 -78 -31 63 -58 126 -55 128 2 2 23 -37 47 -87 40
-80 53 -97 120 -152 41 -34 109 -91 152 -127 185 -158 227 -192 288 -236 91
-64 243 -129 350 -149 49 -9 360 -18 360 -11 0 4 -12 29 -26 57 -14 28 -24 53
-21 55 2 2 16 -23 32 -56 l29 -60 183 0 c120 0 183 4 183 10 0 6 -9 29 -20 50
-11 22 -18 40 -15 40 2 0 16 -23 30 -50 l25 -50 56 0 c53 0 55 1 49 23 l-7 22
17 -22 c19 -26 63 -30 161 -13 89 16 87 15 69 49 -8 17 -15 34 -15 38 1 4 10
-9 21 -29 11 -21 23 -38 27 -38 4 0 37 11 75 24 86 32 196 91 223 121 12 12
31 26 42 29 12 4 33 21 48 39 15 18 32 34 40 37 13 5 102 79 463 385 94 80
201 200 201 227 0 10 5 18 10 18 6 0 22 26 37 58 14 31 31 68 38 82 27 53 46
141 102 466 5 30 3 33 -38 48 -30 11 -35 14 -14 11 17 -3 37 -7 45 -8 12 -2
20 27 39 130 13 73 21 139 18 148 -5 12 -23 15 -79 15 -82 0 -200 -29 -537
-133 l-204 -62 -14 -40 c-7 -22 -15 -51 -17 -65 -2 -14 -6 -32 -9 -40 -8 -21
-27 -93 -27 -104 0 -4 17 -6 38 -2 l37 5 -42 -15 c-33 -12 -43 -21 -48 -45 -4
-16 -16 -38 -26 -48 -18 -17 -19 -20 -4 -34 8 -9 11 -18 6 -22 -5 -3 -15 -31
-21 -63 -7 -31 -16 -66 -21 -77 -5 -11 -18 -55 -29 -97 -11 -43 -27 -96 -36
-118 -14 -34 -20 -40 -38 -34 -11 4 -25 13 -31 19 -15 19 -172 85 -201 85 -14
0 -23 4 -20 9 12 18 -50 31 -149 31 -98 0 -140 -12 -98 -27 18 -6 30 -11 170
-72 39 -17 89 -31 110 -31 28 0 34 -3 23 -10 -8 -5 -44 -10 -79 -10 -53 0 -69
-4 -88 -22 -31 -29 -29 -16 2 18 26 28 32 44 16 44 -5 0 -58 23 -117 52 -87
41 -122 52 -172 55 l-63 4 3 -33 c3 -30 9 -35 78 -65 55 -23 68 -32 48 -33
-14 0 -33 -3 -41 -6 -9 -3 -16 2 -19 14 -3 11 -19 24 -37 30 -30 11 -31 10
-31 -16 -1 -15 -8 -40 -16 -57 -8 -16 -12 -23 -10 -14 2 9 7 36 11 61 l7 44
-82 37 c-78 35 -100 38 -100 17 0 -5 -17 -47 -39 -92 -21 -46 -41 -90 -45 -98
-3 -8 -4 -2 -1 14 4 16 22 60 41 98 50 102 51 100 -63 98 -126 -2 -123 -3
-123 15 0 11 7 14 23 10 12 -3 42 -1 67 3 l45 9 -70 33 c-131 60 -143 63 -181
39 -19 -11 -34 -25 -34 -30 0 -5 -6 -9 -13 -9 -7 0 -23 -10 -37 -23 -14 -13
-46 -36 -72 -50 -45 -27 -46 -28 -83 -10 -30 14 -38 15 -45 4 -6 -11 -9 -10
-11 3 -3 11 -32 28 -79 47 -68 27 -112 45 -208 86 -19 8 -37 26 -43 41 -10 25
-29 252 -27 317 1 44 27 -91 28 -145 0 -64 11 -120 22 -120 14 0 102 71 191
153 42 40 42 36 21 177 -8 58 -15 115 -15 127 1 47 -11 41 -155 -82 -33 -27
-60 -53 -62 -57 -6 -14 -40 -8 -46 8 -3 9 -6 32 -5 52 0 20 3 31 6 25 6 -15
19 -17 36 -3 35 27 156 131 180 154 28 26 28 27 22 119 -3 50 -10 106 -16 123
-5 18 -9 36 -8 40 4 24 -2 54 -11 54 -6 0 -36 -25 -68 -56 -96 -94 -147 -133
-161 -125 -7 5 -15 27 -18 51 -4 30 -3 41 5 36 29 -18 214 147 229 204 6 21 6
66 1 115 -5 44 -10 89 -10 100 0 46 -9 67 -25 60 -14 -5 -14 -3 2 15 24 26 55
26 62 -1 4 -15 8 -17 14 -8 4 8 10 11 14 8 5 -5 13 -115 14 -196 1 -18 6 -33
12 -33 6 0 58 44 115 97 l105 97 -2 45 c-2 39 -11 100 -33 226 -2 11 -9 19
-16 17 -7 -1 -52 -42 -101 -90 -77 -76 -89 -92 -89 -122 l0 -34 -21 22 c-18
20 -19 24 -5 38 9 8 17 32 17 52 1 36 2 36 8 7 l6 -29 22 27 c12 15 60 64 108
108 70 65 91 80 113 77 26 -3 28 -7 47 -118 16 -88 24 -115 36 -115 20 0 216
181 235 218 12 22 13 39 6 80 -6 29 -16 86 -23 127 -6 41 -16 79 -21 85 -8 9
-45 -24 -209 -189 -21 -22 -39 -45 -39 -53 0 -7 -4 -13 -10 -13 -23 0 -5 25
83 118 140 147 194 192 233 192 18 0 36 -4 39 -10 3 -5 1 -10 -6 -10 -8 0 -10
-14 -5 -52 4 -29 10 -71 12 -93 17 -140 41 -195 85 -195 9 0 19 -6 22 -14 5
-12 131 -106 143 -106 2 0 30 -20 62 -45 31 -25 65 -45 76 -45 15 0 17 5 12
38 -3 20 -6 44 -7 52 -3 60 -21 166 -31 177 -6 7 -9 16 -6 18 12 13 28 -27 39
-96 6 -41 14 -81 17 -89 2 -8 4 -30 3 -48 -3 -44 15 -48 96 -23 114 36 136 37
185 7 24 -15 63 -42 88 -61 25 -18 70 -51 100 -72 30 -20 78 -57 107 -80 l52
-43 112 30 c61 17 114 29 116 26 2 -2 -34 -14 -80 -26 -101 -27 -119 -36 -97
-50 155 -98 290 -205 290 -230 0 -6 -14 2 -31 19 -17 17 -34 31 -39 31 -5 0
-15 6 -22 13 -7 7 -55 44 -107 81 -77 55 -96 65 -106 54 -7 -7 -23 -53 -34
-103 -12 -49 -28 -113 -37 -140 -22 -74 -24 -112 -9 -125 42 -35 262 -170 277
-170 22 0 23 -23 3 -40 -18 -15 -20 -60 -4 -60 7 0 120 33 253 74 328 102 388
116 489 116 l85 0 7 30 c4 17 8 47 10 68 1 20 6 57 9 82 13 87 -27 333 -58
356 -10 7 -13 13 -6 16 17 5 -124 272 -241 454 -21 33 -39 63 -39 67 0 6 -54
101 -90 157 -5 8 -17 30 -26 48 -9 17 -22 32 -29 32 -8 0 -11 8 -8 18 2 10 -5
26 -16 36 -12 11 -21 23 -21 29 0 18 -84 110 -157 172 -84 72 -225 146 -388
204 -60 21 -231 82 -380 136 -148 53 -303 103 -343 111 -79 15 -199 16 -300 3z
m194 -243 c1 0 16 -29 33 -64 18 -35 36 -62 41 -60 5 2 26 28 47 58 36 51 42
55 78 55 l40 0 -2 -110 c-2 -60 -5 -134 -9 -163 l-6 -53 -36 3 -37 3 2 78 c2
42 -1 77 -5 77 -4 0 -22 -23 -40 -50 -17 -28 -37 -50 -42 -50 -5 0 -24 28 -42
63 l-33 62 -3 -50 c-1 -27 -4 -65 -7 -82 -6 -31 -8 -33 -46 -33 l-41 0 6 78
c3 42 9 117 12 165 l6 88 42 -6 c22 -4 42 -8 42 -9z m-228 -48 c3 -34 1 -38
-21 -38 -14 0 -39 -3 -56 -6 -25 -5 -31 -11 -29 -28 2 -17 8 -20 33 -17 75 11
80 9 80 -29 0 -34 -2 -35 -47 -43 -42 -8 -48 -12 -48 -33 0 -24 1 -24 64 -18
l63 6 6 -28 c3 -16 2 -33 -2 -37 -8 -9 -190 -41 -196 -35 -5 5 -57 310 -53
313 7 7 155 33 178 32 21 -2 25 -7 28 -39z m-297 -177 c32 -79 57 -147 54
-151 -3 -4 -19 -13 -36 -19 -31 -11 -31 -11 -57 48 l-25 58 -54 -21 c-59 -23
-63 -34 -37 -90 21 -42 15 -60 -24 -74 l-30 -10 -48 116 c-26 65 -53 132 -61
149 -13 31 -12 33 16 48 17 8 34 15 39 15 5 0 19 -22 30 -50 12 -27 27 -50 34
-50 26 0 98 35 98 48 0 7 -7 29 -15 49 -8 19 -15 41 -15 47 0 12 47 35 64 32
5 -1 35 -66 67 -145z m1110 28 c4 -52 7 -129 8 -171 1 -68 -1 -78 -16 -78 -35
0 -68 25 -73 55 -4 25 -12 31 -53 44 -48 15 -49 15 -66 -8 -17 -22 -21 -23
-55 -11 -20 6 -36 16 -36 22 0 10 185 246 204 259 5 4 25 1 45 -5 l36 -13 6
-94z m297 -50 c118 -69 114 -66 95 -97 -9 -15 -18 -28 -19 -30 -1 -2 -18 5
-38 14 -19 10 -37 16 -39 13 -2 -2 -30 -48 -62 -101 -31 -54 -62 -98 -67 -98
-13 0 -58 31 -58 41 0 4 25 50 56 101 31 51 58 96 60 100 3 4 -9 15 -26 24
-16 10 -30 24 -30 31 0 17 22 53 33 53 5 0 47 -23 95 -51z m-1825 -38 c17 -30
17 -30 -13 -47 -16 -10 -30 -22 -30 -27 0 -5 30 -52 67 -104 l67 -96 -30 -23
c-16 -13 -31 -24 -34 -24 -3 0 -36 45 -73 100 l-68 101 -35 -22 -34 -21 -20
24 c-11 12 -19 28 -19 33 0 11 178 135 194 135 6 0 18 -13 28 -29z m2061 -134
c8 -12 -11 -41 -88 -136 -54 -67 -101 -121 -105 -121 -12 0 -53 48 -50 57 2 5
46 61 98 126 88 109 96 116 115 104 11 -8 24 -21 30 -30z m184 -54 c-21 -2
-57 -2 -80 0 -24 2 -7 4 37 4 44 0 63 -2 43 -4z m-2477 -129 c85 -36 156 -67
158 -70 3 -2 -8 -17 -23 -33 -25 -26 -31 -28 -57 -18 -26 10 -32 8 -64 -23
-38 -37 -42 -50 -23 -80 10 -16 9 -23 -12 -45 -13 -14 -28 -25 -35 -25 -6 0
-44 67 -85 150 l-74 150 29 30 c16 16 30 30 31 30 1 0 71 -30 155 -66z m2439
26 c66 -18 120 -93 120 -165 0 -40 -11 -49 -50 -40 -23 5 -30 12 -30 31 0 68
-63 117 -120 94 -37 -15 -50 -37 -50 -84 0 -44 26 -72 73 -81 29 -6 36 -12 41
-37 3 -17 3 -34 0 -39 -16 -27 -120 8 -162 54 -49 52 -49 150 0 212 23 29 90
64 123 65 11 0 36 -5 55 -10z m-1285 -70 c3 -6 -1 -7 -9 -4 -18 7 -21 14 -7
14 6 0 13 -4 16 -10z m-1267 -303 c16 -13 15 -28 -6 -55 l-18 -24 -67 37 c-37
20 -67 32 -67 26 0 -6 11 -29 25 -51 37 -59 34 -70 -22 -71 -89 -1 -93 -11
-20 -50 70 -36 78 -49 49 -86 l-17 -22 -135 72 c-74 40 -136 79 -138 88 -1 9
6 26 16 40 17 20 30 24 96 27 l76 4 -40 72 -39 72 20 33 19 32 128 -67 c70
-37 133 -71 140 -77z m193 66 c-5 -10 -17 -27 -26 -38 -16 -19 -17 -19 -3 5
26 46 29 50 34 50 3 0 0 -8 -5 -17z m1156 11 c-3 -3 -12 -4 -19 -1 -8 3 -5 6
6 6 11 1 17 -2 13 -5z m1518 -114 l18 -41 -49 -52 c-125 -133 -179 -187 -186
-187 -4 0 -15 14 -23 30 -15 29 -15 32 4 57 l21 26 -27 49 c-24 44 -29 48 -55
43 -24 -6 -30 -2 -45 29 -9 20 -14 38 -11 41 4 5 267 41 314 44 15 1 26 -10
39 -39z m-2610 -243 c-21 -25 -48 -51 -61 -58 -13 -7 -24 -16 -24 -21 0 -4 -5
-8 -11 -8 -6 0 20 31 58 69 37 38 70 68 72 66 1 -2 -14 -24 -34 -48z m2170 33
c-11 -5 -27 -9 -35 -9 -9 0 -8 4 5 9 11 5 27 9 35 9 9 0 8 -4 -5 -9z m-2285
-150 c-7 -13 -9 -46 -4 -89 3 -38 2 -71 -2 -74 -13 -7 -15 142 -3 165 5 10 12
18 15 18 2 0 0 -9 -6 -20z m2305 -220 c-3 -5 -11 -10 -16 -10 -6 0 -7 5 -4 10
3 6 11 10 16 10 6 0 7 -4 4 -10z m-18 -42 c-3 -8 -6 -5 -6 6 -1 11 2 17 5 13
3 -3 4 -12 1 -19z m-10 -40 c-3 -8 -6 -5 -6 6 -1 11 2 17 5 13 3 -3 4 -12 1
-19z m-8 -56 c-5 -2 -9 -10 -9 -18 0 -12 -3 -12 -14 -2 -12 11 -12 14 0 21 8
4 14 16 15 25 0 14 2 13 8 -3 5 -11 4 -21 0 -23z m-2588 -69 c-12 -20 -14 -14
-5 12 4 9 9 14 11 11 3 -2 0 -13 -6 -23z m-45 -100 c-8 -15 -15 -25 -16 -21 0
12 23 58 27 54 3 -2 -2 -17 -11 -33z m401 -15 c-3 -8 -6 -5 -6 6 -1 11 2 17 5
13 3 -3 4 -12 1 -19z m3 -40 c0 -16 -3 -19 -11 -11 -6 6 -8 16 -5 22 11 17 16
13 16 -11z m2878 5 c-15 -2 -42 -2 -60 0 -18 2 -6 4 27 4 33 0 48 -2 33 -4z
m-121 -9 c-3 -3 -12 -4 -19 -1 -8 3 -5 6 6 6 11 1 17 -2 13 -5z m61 -131 c-16
-2 -40 -2 -55 0 -16 2 -3 4 27 4 30 0 43 -2 28 -4z m-95 -10 c-7 -2 -21 -2
-30 0 -10 3 -4 5 12 5 17 0 24 -2 18 -5z m-56 -9 c-3 -3 -12 -4 -19 -1 -8 3
-5 6 6 6 11 1 17 -2 13 -5z m-82 -24 c-11 -5 -27 -9 -35 -9 -9 0 -8 4 5 9 11
5 27 9 35 9 9 0 8 -4 -5 -9z m-56 -14 c-8 -7 -251 -77 -255 -73 -2 2 49 20
113 40 108 33 153 43 142 33z m-302 -92 c-3 -3 -12 -4 -19 -1 -8 3 -5 6 6 6
11 1 17 -2 13 -5z m-2770 -316 c-3 -7 -5 -2 -5 12 0 14 2 19 5 13 2 -7 2 -19
0 -25z m10 -70 c-3 -8 -6 -5 -6 6 -1 11 2 17 5 13 3 -3 4 -12 1 -19z m10 -50
c-3 -8 -6 -5 -6 6 -1 11 2 17 5 13 3 -3 4 -12 1 -19z m3189 6 c18 -9 39 -23
46 -32 8 -10 -1 -7 -26 8 -25 15 -63 26 -105 30 l-66 7 58 2 c36 0 72 -5 93
-15z m-169 0 c-3 -3 -12 -4 -19 -1 -8 3 -5 6 6 6 11 1 17 -2 13 -5z m-40 -10
c-3 -3 -12 -4 -19 -1 -8 3 -5 6 6 6 11 1 17 -2 13 -5z m-2048 -64 c0 -9 -4 -8
-9 5 -5 11 -9 27 -9 35 0 9 4 8 9 -5 5 -11 9 -27 9 -35z m1938 34 c-3 -3 -12
-4 -19 -1 -8 3 -5 6 6 6 11 1 17 -2 13 -5z m-2303 -60 c91 -82 99 -125 36
-185 -22 -21 -40 -44 -40 -52 0 -21 -45 -65 -74 -73 -44 -11 -77 5 -143 69
l-63 62 106 113 c58 61 110 112 116 112 6 0 33 -21 62 -46z m-525 -39 c0 -5
-4 -3 -9 5 -5 8 -9 22 -9 30 0 16 17 -16 18 -35z m911 10 c0 -5 -5 -3 -10 5
-5 8 -10 20 -10 25 0 6 5 3 10 -5 5 -8 10 -19 10 -25z m1801 -61 l152 -75 -34
-28 c-28 -24 -36 -26 -61 -17 -25 9 -31 7 -63 -24 -30 -29 -34 -39 -29 -67 5
-27 2 -36 -22 -57 -16 -13 -32 -22 -35 -18 -3 4 -34 74 -68 156 l-62 148 27
29 c15 16 31 29 36 29 5 0 76 -34 159 -76z m-1777 9 c9 -18 14 -33 12 -33 -6
0 -36 55 -36 66 0 11 5 3 24 -33z m1384 30 c-21 -2 -55 -2 -75 0 -21 2 -4 4
37 4 41 0 58 -2 38 -4z m-1338 -123 c11 -22 18 -40 15 -40 -2 0 -14 18 -25 40
-11 22 -18 40 -15 40 2 0 14 -18 25 -40z m433 20 c-3 -11 -7 -20 -9 -20 -2 0
-4 9 -4 20 0 11 4 20 9 20 5 0 7 -9 4 -20z m210 -21 c-12 -23 -18 -57 -18
-106 0 -45 -3 -66 -9 -56 -12 22 -2 122 17 167 10 22 19 37 22 34 3 -3 -3 -20
-12 -39z m386 -9 c0 -9 -4 -8 -9 5 -5 11 -9 27 -9 35 0 9 4 8 9 -5 5 -11 9
-27 9 -35z m-1275 11 c15 -16 16 -23 6 -43 -29 -55 -156 -238 -166 -238 -6 0
-23 9 -38 21 l-26 21 57 81 c136 196 134 194 167 158z m709 -131 c4 -14 0 -9
-9 10 -9 19 -18 51 -20 70 -4 31 -3 30 9 -10 7 -25 16 -56 20 -70z m574 68
c-3 -7 -5 -2 -5 12 0 14 2 19 5 13 2 -7 2 -19 0 -25z m353 7 c38 -20 62 -67
58 -113 -3 -34 0 -38 49 -66 29 -17 53 -34 53 -38 0 -4 -17 -16 -38 -27 l-38
-19 -47 29 c-73 45 -91 35 -56 -32 l21 -42 -23 -19 c-13 -10 -30 -17 -38 -15
-17 3 -163 256 -157 272 7 20 129 84 159 85 15 0 41 -7 57 -15z m-1455 -50
c108 -51 108 -51 89 -87 -12 -22 -20 -28 -35 -24 -10 3 -28 9 -38 12 -17 5
-28 -10 -72 -97 -28 -57 -53 -105 -54 -107 -3 -4 -75 25 -75 30 0 2 23 50 50
106 28 56 50 106 50 112 0 5 -13 16 -30 25 -35 18 -35 17 -15 56 12 23 19 27
33 20 9 -4 53 -25 97 -46z m103 30 c-3 -3 -9 2 -12 12 -6 14 -5 15 5 6 7 -7
10 -15 7 -18z m1063 -122 c18 -18 18 -19 -4 -46 -19 -25 -26 -27 -49 -18 -19
7 -31 6 -44 -4 -27 -19 -15 -26 61 -35 101 -13 141 -63 109 -138 -15 -37 -78
-71 -129 -72 -30 0 -95 33 -95 48 0 5 11 18 24 31 20 19 27 20 50 10 30 -14
76 1 76 25 0 19 -22 26 -84 26 -44 0 -58 5 -80 26 -48 49 -29 130 38 160 39
18 103 11 127 -13z m-825 -29 c13 -3 30 -27 48 -70 16 -35 31 -66 35 -68 4 -3
28 23 55 56 46 57 50 60 83 55 20 -4 37 -8 40 -11 5 -5 -34 -307 -41 -314 -10
-9 -76 9 -76 21 0 7 5 41 10 77 5 35 8 66 6 67 -2 2 -21 -19 -42 -47 -21 -27
-44 -50 -50 -50 -7 0 -22 25 -35 55 -12 30 -26 55 -30 55 -4 0 -10 -26 -13
-57 -11 -93 -12 -95 -54 -87 -20 4 -38 7 -39 8 -2 1 6 69 17 150 11 82 20 152
20 157 0 10 34 12 66 3z m-138 -29 c-3 -3 -9 2 -12 12 -6 14 -5 15 5 6 7 -7
10 -15 7 -18z m692 -14 l0 -39 -55 -4 c-63 -5 -68 -8 -59 -33 6 -14 15 -16 59
-10 l53 6 5 -33 c2 -18 3 -36 0 -40 -2 -5 -26 -8 -54 -8 -48 0 -49 -1 -49 -30
l0 -29 65 6 65 6 0 -36 c0 -43 -7 -46 -125 -50 l-80 -2 -12 110 c-6 61 -14
131 -18 157 l-5 46 72 10 c40 5 88 10 106 11 31 1 32 0 32 -38z m642 -228 c-3
-16 -7 -22 -10 -15 -4 13 4 42 11 42 2 0 2 -12 -1 -27z m-372 -117 c0 -12 -5
-7 -19 24 -11 24 -11 24 3 6 9 -11 16 -24 16 -30z m-242 -41 c-3 -3 -9 2 -12
12 -6 14 -5 15 5 6 7 -7 10 -15 7 -18z"/>
<path d="M10186 6861 c-19 -21 -14 -41 10 -41 9 0 14 11 14 30 0 35 -1 36 -24
11z"/>
<path d="M8447 6420 c7 -28 21 -34 39 -19 14 12 14 14 -2 26 -26 19 -43 16
-37 -7z"/>
<path d="M11110 6036 c0 -22 19 -30 35 -16 22 18 18 30 -10 30 -15 0 -25 -6
-25 -14z"/>
<path d="M8573 4275 c-7 -20 24 -55 49 -55 25 0 23 28 -4 51 -28 23 -37 23
-45 4z"/>
<path d="M8492 4198 c-18 -18 -15 -32 11 -56 48 -46 83 -13 41 38 -29 33 -35
35 -52 18z"/>
<path d="M10730 4211 c0 -20 13 -41 25 -41 23 0 29 22 10 37 -22 15 -35 17
-35 4z"/>
<path d="M10396 4045 c-16 -12 -18 -19 -8 -40 13 -29 29 -31 60 -9 31 21 26
58 -8 61 -14 2 -34 -4 -44 -12z"/>
<path d="M9528 6195 c-3 -3 1 -36 9 -73 8 -37 14 -74 15 -82 0 -8 7 -48 14
-88 8 -41 14 -75 14 -76 0 -4 107 -73 185 -120 52 -31 69 -36 123 -36 35 0 62
4 62 10 0 21 -31 204 -36 212 -3 4 -17 9 -32 9 -25 2 -25 2 -3 6 21 4 19 8
-27 39 -28 19 -56 34 -61 34 -5 0 -11 4 -13 8 -3 9 -123 92 -132 92 -3 0 -26
16 -52 35 -45 35 -56 40 -66 30z"/>
<path d="M9376 6110 c-26 -27 -63 -62 -82 -76 -18 -14 -31 -30 -28 -35 3 -5 1
-9 -3 -9 -5 0 -23 -13 -41 -29 -34 -32 -40 -67 -26 -152 l6 -36 102 -6 101 -6
48 51 c46 49 49 54 42 92 -3 23 -9 59 -12 81 -16 118 -29 170 -44 173 -8 1
-36 -20 -63 -48z m-109 -226 c-3 -3 -12 -4 -19 -1 -8 3 -5 6 6 6 11 1 17 -2
13 -5z"/>
<path d="M10166 6032 c-3 -5 -7 -19 -10 -33 -3 -13 -10 -42 -15 -64 -5 -22
-12 -51 -15 -65 -3 -14 -12 -49 -20 -77 l-14 -53 36 -1 37 -2 -35 -6 c-60 -10
-69 -79 -13 -103 15 -6 37 -19 48 -28 35 -29 125 -80 140 -80 8 0 15 -5 15
-10 0 -12 87 -56 95 -49 3 3 9 26 14 50 4 24 21 98 36 163 22 97 24 120 13
127 -10 7 -10 9 0 9 6 0 12 4 12 9 0 13 -97 81 -116 81 -8 0 -13 3 -11 8 3 4
-25 27 -61 52 -37 25 -75 53 -86 63 -21 18 -42 22 -50 9z m291 -238 c-3 -3
-12 -4 -19 -1 -8 3 -5 6 6 6 11 1 17 -2 13 -5z m-50 -10 c-3 -3 -12 -4 -19 -1
-8 3 -5 6 6 6 11 1 17 -2 13 -5z m-40 -10 c-3 -3 -12 -4 -19 -1 -8 3 -5 6 6 6
11 1 17 -2 13 -5z m-50 -10 c-3 -3 -12 -4 -19 -1 -8 3 -5 6 6 6 11 1 17 -2 13
-5z m-54 -11 c-7 -2 -19 -2 -25 0 -7 3 -2 5 12 5 14 0 19 -2 13 -5z m-50 -10
c-7 -2 -21 -2 -30 0 -10 3 -4 5 12 5 17 0 24 -2 18 -5z m20 -120 c-7 -2 -19
-2 -25 0 -7 3 -2 5 12 5 14 0 19 -2 13 -5z m134 -99 c-3 -3 -12 -4 -19 -1 -8
3 -5 6 6 6 11 1 17 -2 13 -5z"/>
<path d="M9009 5764 c-57 -53 -108 -100 -112 -104 -5 -4 -4 -34 2 -66 8 -42 8
-60 0 -65 -11 -6 -6 -137 7 -181 8 -27 20 -22 84 28 56 44 58 47 49 77 -5 18
-8 52 -8 77 2 41 2 39 9 -18 4 -34 10 -65 13 -69 8 -7 40 14 85 56 32 30 33
33 28 88 -10 105 -18 143 -31 143 -15 0 -85 -75 -85 -92 0 -6 -3 -9 -6 -6 -11
12 28 69 62 91 34 21 35 23 28 72 -3 28 -9 54 -13 58 -5 4 -55 -36 -112 -89z
m28 -166 c-3 -8 -6 -5 -6 6 -1 11 2 17 5 13 3 -3 4 -12 1 -19z m-110 -180 c-3
-7 -5 -2 -5 12 0 14 2 19 5 13 2 -7 2 -19 0 -25z"/>
<path d="M9590 5755 c0 -19 5 -25 23 -26 18 -1 19 -2 3 -6 -14 -4 -17 -11 -13
-31 3 -15 13 -76 23 -136 l19 -109 50 -31 c28 -17 62 -38 77 -46 15 -8 72 -41
127 -72 54 -32 102 -58 106 -58 10 0 -1 128 -18 229 -15 87 -39 120 -89 122
-18 1 -25 3 -15 6 27 7 -149 113 -188 113 -21 0 -26 3 -16 9 11 7 4 15 -27 35
-52 32 -62 33 -62 1z m97 -151 c-3 -3 -12 -4 -19 -1 -8 3 -5 6 6 6 11 1 17 -2
13 -5z m126 -11 c-7 -2 -21 -2 -30 0 -10 3 -4 5 12 5 17 0 24 -2 18 -5z m-136
-99 c-3 -3 -12 -4 -19 -1 -8 3 -5 6 6 6 11 1 17 -2 13 -5z m101 -11 c-10 -2
-28 -2 -40 0 -13 2 -5 4 17 4 22 1 32 -1 23 -4z m90 -120 c-10 -2 -26 -2 -35
0 -10 3 -2 5 17 5 19 0 27 -2 18 -5z"/>
<path d="M9506 5763 c-11 -11 -6 -23 9 -23 8 0 15 4 15 9 0 13 -16 22 -24 14z"/>
<path d="M9216 5751 c-7 -11 4 -94 14 -111 11 -18 39 -4 100 50 45 41 52 52
40 60 -19 12 -147 13 -154 1z"/>
<path d="M9431 5693 c-38 -32 -41 -38 -25 -44 16 -6 14 -8 -8 -8 -18 -1 -47
-19 -88 -58 l-62 -57 7 -60 c10 -92 33 -235 40 -246 3 -6 10 -10 14 -10 12 0
223 177 222 186 0 5 9 12 20 16 20 8 43 53 34 68 -3 5 -8 30 -11 56 -3 27 -8
52 -10 56 -2 4 -7 26 -10 50 -15 101 -47 115 -123 51z m56 -59 c-3 -3 -12 -4
-19 -1 -8 3 -5 6 6 6 11 1 17 -2 13 -5z m-19 -111 c-16 -2 -40 -2 -55 0 -16 2
-3 4 27 4 30 0 43 -2 28 -4z m89 -9 c-3 -3 -12 -4 -19 -1 -8 3 -5 6 6 6 11 1
17 -2 13 -5z"/>
<path d="M9860 5706 c0 -9 74 -56 88 -56 9 0 12 10 10 28 -3 25 -7 27 -50 30
-27 2 -48 1 -48 -2z"/>
<path d="M10040 5531 c-15 -29 -12 -39 13 -44 20 -4 19 -4 -4 -6 -17 0 -28 -8
-31 -19 -6 -22 22 -206 32 -210 4 -1 3 -28 -1 -58 -4 -31 -5 -62 -3 -69 8 -19
179 -105 210 -105 41 0 49 9 62 62 15 60 16 58 -10 59 -22 1 -22 1 2 8 22 6
28 18 49 104 24 94 24 97 6 117 -10 11 -24 20 -31 20 -7 0 -24 10 -37 23 -14
12 -51 36 -83 52 -32 17 -63 35 -69 41 -17 18 -64 44 -79 44 -9 0 -20 -9 -26
-19z"/>
<path d="M9139 5419 c-19 -17 -40 -34 -48 -39 -13 -7 -11 -23 8 -108 13 -55
21 -109 18 -119 -3 -13 -5 -11 -6 7 -1 31 -36 179 -44 187 -6 6 -86 -55 -126
-96 -18 -19 -22 -32 -18 -60 25 -175 40 -257 46 -264 4 -4 40 18 79 49 70 55
72 59 74 103 1 44 2 44 5 9 2 -21 7 -38 11 -38 12 0 92 81 92 93 0 34 -42 293
-49 300 -4 4 -23 -7 -42 -24z"/>
<path d="M9560 5329 c-29 -23 -60 -49 -70 -58 -17 -16 -66 -57 -125 -105 -20
-16 -27 -28 -20 -34 6 -6 65 -38 132 -71 l123 -61 37 20 c21 11 47 20 58 19
12 0 6 -5 -15 -11 -19 -5 -41 -16 -49 -23 -11 -11 -7 -17 27 -34 56 -28 66
-27 118 16 33 26 41 38 32 44 -9 6 -3 9 16 9 18 0 46 14 75 37 81 66 82 68 68
85 -13 17 -132 88 -147 88 -6 0 -18 7 -28 16 -11 9 -55 36 -100 60 l-80 44
-52 -41z m207 -175 c-3 -3 -12 -4 -19 -1 -8 3 -5 6 6 6 11 1 17 -2 13 -5z m60
-10 c-3 -3 -12 -4 -19 -1 -8 3 -5 6 6 6 11 1 17 -2 13 -5z m-64 -101 c-7 -2
-19 -2 -25 0 -7 3 -2 5 12 5 14 0 19 -2 13 -5z"/>
<path d="M10435 5278 c-10 -31 -25 -97 -24 -105 1 -4 -1 -15 -4 -23 -7 -19
-27 -92 -27 -102 0 -5 8 -8 18 -8 21 0 218 44 291 66 53 15 53 15 35 36 -28
30 -102 71 -115 62 -7 -4 -9 -3 -6 3 9 14 -107 83 -139 83 -14 0 -27 -6 -29
-12z"/>
<path d="M11626 5253 c-3 -16 -15 -83 -27 -150 -21 -119 -21 -124 -3 -150 16
-25 16 -26 1 -14 -10 8 -20 12 -22 9 -3 -3 -12 -47 -20 -99 -31 -193 -62 -326
-93 -393 -18 -38 -32 -72 -32 -77 0 -15 -105 -158 -156 -213 -6 -7 -33 -31
-60 -53 -27 -23 -96 -81 -154 -130 -58 -48 -142 -119 -187 -156 -46 -38 -83
-71 -83 -74 0 -2 15 -2 33 2 21 4 27 3 17 -3 -8 -5 -31 -12 -50 -16 -23 -4
-67 -33 -130 -86 -52 -44 -98 -80 -102 -80 -5 0 -8 -7 -8 -16 0 -8 -5 -12 -10
-9 -6 3 -23 -2 -38 -12 -49 -33 -67 -43 -82 -49 -8 -3 -22 -9 -30 -13 -8 -4
-37 -14 -64 -22 -31 -9 -51 -21 -54 -32 -4 -16 -6 -16 -16 -2 -9 13 -17 14
-40 5 -16 -6 -62 -13 -104 -15 -88 -6 -96 -10 -81 -36 6 -12 9 -23 6 -25 -2
-3 -10 9 -17 26 -12 28 -16 30 -67 30 -55 0 -55 0 -49 -27 l6 -28 -15 27 -15
28 -180 -1 c-195 0 -193 1 -168 -54 l11 -25 184 0 c140 0 183 3 183 13 0 9 2
9 8 0 10 -16 191 -16 287 0 66 11 70 13 67 37 l-3 25 16 -22 16 -23 62 24 c80
31 125 52 162 76 17 11 38 23 47 27 22 10 165 125 272 219 45 39 88 75 97 80
9 5 41 30 70 56 30 25 113 97 186 158 73 61 135 120 138 131 4 10 12 19 18 19
33 0 207 287 207 340 0 10 6 33 14 52 21 48 68 302 60 322 -3 9 -2 22 4 29 10
13 29 95 37 162 2 22 12 74 20 115 l16 75 -28 22 c-37 30 -50 29 -57 -4z
m-279 -1065 c-3 -7 -5 -2 -5 12 0 14 2 19 5 13 2 -7 2 -19 0 -25z"/>
<path d="M10620 5078 c-41 -11 -113 -28 -159 -37 -83 -16 -85 -18 -94 -50 -9
-37 12 -71 45 -71 10 0 18 -4 18 -9 0 -13 134 -81 160 -81 11 0 19 -4 16 -9
-6 -9 16 -21 40 -21 24 0 16 30 -8 31 -21 1 -21 1 4 11 27 9 44 45 53 112 1
12 5 28 8 36 8 20 27 93 27 103 0 11 -27 7 -110 -15z"/>
<path d="M9249 5052 c-14 -9 -33 -24 -42 -32 -9 -8 -31 -26 -51 -40 -27 -20
-38 -37 -51 -88 -10 -35 -16 -64 -14 -65 21 -15 292 -127 306 -127 11 0 34 12
51 28 18 15 52 42 77 61 44 33 45 34 45 91 l0 58 -52 22 c-29 12 -92 42 -140
66 -48 24 -91 44 -95 44 -5 0 -20 -8 -34 -18z"/>
<path d="M9943 5053 c-7 -3 -13 -11 -13 -19 0 -10 13 -14 47 -14 43 0 45 1 28
13 -27 19 -48 25 -62 20z"/>
<path d="M9915 4979 c-5 -19 -9 -43 -11 -54 -1 -11 -8 -36 -13 -55 -17 -54
-15 -57 52 -68 l62 -11 -62 5 c-70 5 -77 -1 -89 -72 l-6 -39 130 -62 c72 -34
148 -65 170 -69 39 -6 39 -6 48 32 5 22 9 46 10 54 0 8 6 26 11 40 6 14 14 40
18 58 l7 32 -74 1 c-40 0 -93 4 -118 8 -27 5 2 6 75 3 l120 -5 14 51 c16 64 9
73 -108 132 -68 34 -98 43 -156 47 l-73 6 -7 -34z"/>
<path d="M10268 5003 c6 -2 18 -2 25 0 6 3 1 5 -13 5 -14 0 -19 -2 -12 -5z"/>
<path d="M9050 4899 c-34 -29 -34 -31 -16 -45 30 -21 43 -17 55 17 23 66 13
73 -39 28z"/>
<path d="M9580 4880 c0 -45 1 -46 35 -24 30 20 32 40 6 54 -33 17 -41 11 -41
-30z"/>
<path d="M10325 4835 c-9 -20 -13 -40 -9 -46 3 -5 2 -15 -3 -22 -14 -18 -35
-96 -28 -107 3 -5 1 -11 -4 -14 -8 -5 -12 -20 -27 -105 -7 -33 6 -44 94 -81
42 -18 100 -44 129 -59 38 -18 55 -23 63 -15 6 6 22 53 35 105 13 52 31 118
39 147 8 28 13 60 12 70 -4 27 -132 91 -176 86 -29 -3 -30 -2 -10 4 24 8 22
10 -30 38 -30 16 -58 30 -63 32 -4 2 -14 -13 -22 -33z m63 -52 c-10 -2 -26 -2
-35 0 -10 3 -2 5 17 5 19 0 27 -2 18 -5z"/>
<path d="M8865 4759 c-159 -133 -156 -130 -145 -145 7 -7 22 -16 33 -20 23 -7
44 -15 141 -58 32 -14 62 -26 67 -26 5 0 10 15 10 33 l1 32 8 -38 c4 -20 9
-39 11 -41 12 -11 102 -35 112 -30 51 29 217 163 217 175 0 6 -35 26 -77 45
-43 19 -94 44 -113 54 -70 36 -77 35 -100 -9 -11 -23 -22 -41 -25 -41 -6 0 6
32 22 55 19 28 17 33 -23 50 -56 23 -74 18 -139 -36z m122 -141 c-3 -8 -6 -5
-6 6 -1 11 2 17 5 13 3 -3 4 -12 1 -19z"/>
<path d="M9636 4641 c-11 -19 17 -45 69 -66 32 -14 61 -23 62 -21 2 2 -1 24
-8 49 l-11 45 -54 0 c-30 0 -56 -3 -58 -7z"/>
<path d="M9766 4641 c-3 -5 1 -32 10 -60 12 -41 20 -52 42 -57 15 -4 32 -10
37 -14 12 -9 251 -18 259 -9 3 3 -18 16 -47 28 -28 13 -60 27 -70 33 -47 24
-202 88 -213 88 -7 0 -15 -4 -18 -9z"/>
<path d="M9358 4629 c-10 -5 -18 -14 -18 -20 0 -9 59 -39 85 -43 6 -1 15 -4
20 -8 29 -18 168 -68 176 -63 5 4 9 26 9 50 0 41 -2 44 -36 55 -20 7 -48 18
-62 26 -31 16 -149 18 -174 3z"/>
<path d="M9580 4635 c0 -2 9 -9 20 -15 16 -9 20 -8 20 5 0 8 -9 15 -20 15 -11
0 -20 -2 -20 -5z"/>
<path d="M9640 4536 l0 -45 70 1 c91 1 92 18 4 58 -37 16 -68 30 -70 30 -2 0
-4 -20 -4 -44z"/>
<path d="M9735 4435 c50 -31 67 -32 63 -2 -3 19 -10 22 -53 25 l-50 2 40 -25z"/>
</g>
</svg>
